<svg xmlns="http://www.w3.org/2000/svg" version="1.1" xmlns:xlink="http://www.w3.org/1999/xlink" xmlns:svgjs="http://svgjs.dev/svgjs" width="1500" height="1500" viewBox="0 0 1500 1500"><rect width="1500" height="1500" fill="#ffffff"></rect><g transform="matrix(0.6666666666666666,0,0,0.6666666666666666,249.39393939393938,435.99032258064517)"><svg viewBox="0 0 396 248" data-background-color="#ffffff" preserveAspectRatio="xMidYMid meet" height="939" width="1500" xmlns="http://www.w3.org/2000/svg" xmlns:xlink="http://www.w3.org/1999/xlink"><g id="tight-bounds" transform="matrix(1,0,0,1,0.2400000000000091,0.4000000000000057)"><svg viewBox="0 0 395.52 247.2" height="247.2" width="395.52"><g><svg></svg></g><g><svg viewBox="0 0 395.52 247.2" height="247.2" width="395.52"><mask id="11565f62-9e2c-482b-89be-bab949c85c39"><rect width="640" height="400" fill="white"></rect><g transform="matrix(1,0,0,1,39.55199999999999,97.68348377204191)"><svg viewBox="0 0 316.416 51.83303245591617" height="51.83303245591617" width="316.416"><g><svg viewBox="0 0 316.416 51.83303245591617" height="51.83303245591617" width="316.416"><g><svg viewBox="0 0 316.416 51.83303245591617" height="51.83303245591617" width="316.416"><g><svg viewBox="0 0 316.416 51.83303245591617" height="51.83303245591617" width="316.416"><g id="SvgjsG2046"><svg viewBox="0 0 316.416 51.83303245591617" height="51.83303245591617" width="316.416" id="SvgjsSvg2045"><g><svg viewBox="0 0 316.416 51.83303245591617" height="51.83303245591617" width="316.416"><g transform="matrix(1,0,0,1,0,0)"><svg width="316.416" viewBox="1.7000000000000002 -32.05 196.63000000000002 33.05" height="51.83303245591617" data-palette-color="#5d30ff"><path d="M11.2-31.05L11.2 0 2.7 0 2.7-31.05 11.2-31.05ZM38.75-31.05L38.75 0 30.55 0 24.1-14.45 23.7-14.45 23.7 0 16.1 0 16.1-31.05 24.55-31.05 30.7-16.15 31.1-16.15 31.1-31.05 38.75-31.05ZM61.7-31.05L61.2-23.5 55.4-23.5 55.4 0 46.85 0 46.85-23.5 40.7-23.5 41.2-31.05 61.7-31.05ZM80.94-7L80.44 0 63.64 0 63.64-31.05 80.94-31.05 80.44-23.4 72.19-23.4 72.19-18.75 79.34-18.75 79.34-12.15 72.19-12.15 72.19-7 80.94-7ZM105.09-21.2L105.09-21.2Q105.09-18.4 104.24-16.55 103.39-14.7 101.59-13.2L101.59-13.2 105.74 0 96.49 0 93.39-11.2 92.24-11.2 92.24 0 83.84 0 83.84-31.05 95.44-31.05Q100.44-31.05 102.77-28.7 105.09-26.35 105.09-21.2ZM93.54-16.45Q94.84-16.45 95.39-17.2 95.94-17.95 95.94-19.93 95.94-21.9 95.39-22.68 94.84-23.45 93.59-23.45L93.59-23.45 92.24-23.45 92.24-16.45 93.54-16.45ZM119.24-10.15L119.24-10.15 116.94-10.15 116.94 0 108.54 0 108.54-31.05 118.69-31.05Q124.04-31.05 126.64-28.6 129.24-26.15 129.24-20.55 129.24-14.95 126.79-12.55 124.34-10.15 119.24-10.15ZM120.19-16.9Q120.64-17.75 120.64-19.95 120.64-22.15 120.14-23.05 119.64-23.95 118.14-23.95L118.14-23.95 116.94-23.95 116.94-16.05 118.34-16.05Q119.74-16.05 120.19-16.9ZM152.99-21.2L152.99-21.2Q152.99-18.4 152.14-16.55 151.29-14.7 149.49-13.2L149.49-13.2 153.64 0 144.39 0 141.29-11.2 140.14-11.2 140.14 0 131.74 0 131.74-31.05 143.34-31.05Q148.34-31.05 150.66-28.7 152.99-26.35 152.99-21.2ZM141.44-16.45Q142.74-16.45 143.29-17.2 143.84-17.95 143.84-19.93 143.84-21.9 143.29-22.68 142.74-23.45 141.49-23.45L141.49-23.45 140.14-23.45 140.14-16.45 141.44-16.45ZM173.73-7L173.23 0 156.43 0 156.43-31.05 173.73-31.05 173.23-23.4 164.98-23.4 164.98-18.75 172.13-18.75 172.13-12.15 164.98-12.15 164.98-7 173.73-7ZM187.33-10.15L187.33-10.15 185.03-10.15 185.03 0 176.63 0 176.63-31.05 186.78-31.05Q192.13-31.05 194.73-28.6 197.33-26.15 197.33-20.55 197.33-14.95 194.88-12.55 192.43-10.15 187.33-10.15ZM188.28-16.9Q188.73-17.75 188.73-19.95 188.73-22.15 188.23-23.05 187.73-23.95 186.23-23.95L186.23-23.95 185.03-23.95 185.03-16.05 186.43-16.05Q187.83-16.05 188.28-16.9Z" opacity="1" transform="matrix(1,0,0,1,0,0)" fill="black" class="wordmark-text-0" id="SvgjsPath2044" stroke-width="1" stroke="black" stroke-linejoin="round"></path></svg></g></svg></g></svg></g></svg></g><g></g></svg></g></svg></g></svg></g></mask><g transform="matrix(1,0,0,1,39.55199999999999,97.68348377204191)"><svg viewBox="0 0 316.416 51.83303245591617" height="51.83303245591617" width="316.416"><g><svg viewBox="0 0 316.416 51.83303245591617" height="51.83303245591617" width="316.416"><g><svg viewBox="0 0 316.416 51.83303245591617" height="51.83303245591617" width="316.416"><g><svg viewBox="0 0 316.416 51.83303245591617" height="51.83303245591617" width="316.416"><g id="textblocktransform"><svg viewBox="0 0 316.416 51.83303245591617" height="51.83303245591617" width="316.416" id="textblock"><g><svg viewBox="0 0 316.416 51.83303245591617" height="51.83303245591617" width="316.416"><g transform="matrix(1,0,0,1,0,0)"><svg width="316.416" viewBox="1.7000000000000002 -32.05 196.63000000000002 33.05" height="51.83303245591617" data-palette-color="#5d30ff"><path d="M11.2-31.05L11.2 0 2.7 0 2.7-31.05 11.2-31.05ZM38.75-31.05L38.75 0 30.55 0 24.1-14.45 23.7-14.45 23.7 0 16.1 0 16.1-31.05 24.55-31.05 30.7-16.15 31.1-16.15 31.1-31.05 38.75-31.05ZM61.7-31.05L61.2-23.5 55.4-23.5 55.4 0 46.85 0 46.85-23.5 40.7-23.5 41.2-31.05 61.7-31.05ZM80.94-7L80.44 0 63.64 0 63.64-31.05 80.94-31.05 80.44-23.4 72.19-23.4 72.19-18.75 79.34-18.75 79.34-12.15 72.19-12.15 72.19-7 80.94-7ZM105.09-21.2L105.09-21.2Q105.09-18.4 104.24-16.55 103.39-14.7 101.59-13.2L101.59-13.2 105.74 0 96.49 0 93.39-11.2 92.24-11.2 92.24 0 83.84 0 83.84-31.05 95.44-31.05Q100.44-31.05 102.77-28.7 105.09-26.35 105.09-21.2ZM93.54-16.45Q94.84-16.45 95.39-17.2 95.94-17.95 95.94-19.93 95.94-21.9 95.39-22.68 94.84-23.45 93.59-23.45L93.59-23.45 92.24-23.45 92.24-16.45 93.54-16.45ZM119.24-10.15L119.24-10.15 116.94-10.15 116.94 0 108.54 0 108.54-31.05 118.69-31.05Q124.04-31.05 126.64-28.6 129.24-26.15 129.24-20.55 129.24-14.95 126.79-12.55 124.34-10.15 119.24-10.15ZM120.19-16.9Q120.64-17.75 120.64-19.95 120.64-22.15 120.14-23.05 119.64-23.95 118.14-23.95L118.14-23.95 116.94-23.95 116.94-16.05 118.34-16.05Q119.74-16.05 120.19-16.9ZM152.99-21.2L152.99-21.2Q152.99-18.4 152.14-16.55 151.29-14.7 149.49-13.2L149.49-13.2 153.64 0 144.39 0 141.29-11.2 140.14-11.2 140.14 0 131.74 0 131.74-31.05 143.34-31.05Q148.34-31.05 150.66-28.7 152.99-26.35 152.99-21.2ZM141.44-16.45Q142.74-16.45 143.29-17.2 143.84-17.95 143.84-19.93 143.84-21.9 143.29-22.68 142.74-23.45 141.49-23.45L141.49-23.45 140.14-23.45 140.14-16.45 141.44-16.45ZM173.73-7L173.23 0 156.43 0 156.43-31.05 173.73-31.05 173.23-23.4 164.98-23.4 164.98-18.75 172.13-18.75 172.13-12.15 164.98-12.15 164.98-7 173.73-7ZM187.33-10.15L187.33-10.15 185.03-10.15 185.03 0 176.63 0 176.63-31.05 186.78-31.05Q192.13-31.05 194.73-28.6 197.33-26.15 197.33-20.55 197.33-14.95 194.88-12.55 192.43-10.15 187.33-10.15ZM188.28-16.9Q188.73-17.75 188.73-19.95 188.73-22.15 188.23-23.05 187.73-23.95 186.23-23.95L186.23-23.95 185.03-23.95 185.03-16.05 186.43-16.05Q187.83-16.05 188.28-16.9Z" opacity="1" transform="matrix(1,0,0,1,0,0)" fill="#5d30ff" class="wordmark-text-0" data-fill-palette-color="primary" id="text-0"></path></svg></g></svg></g></svg></g></svg></g><g></g></svg></g></svg></g></svg></g><g mask="url(#11565f62-9e2c-482b-89be-bab949c85c39)"><g transform="matrix(2.7461802690412873, 0, 0, 2.7461802690412873, 75.16603184765192, 1)"><svg xmlns="http://www.w3.org/2000/svg" xmlns:xlink="http://www.w3.org/1999/xlink" version="1.1" x="0" y="0" viewBox="0.35833249999999595 0.3587183000000067 89.28326340000001 89.2876563" enable-background="new 0 0 90 90" xml:space="preserve" height="89.2876563" width="89.28326340000001" class="icon-none" data-fill-palette-color="accent" id="none"><polygon points="57.928,58.169 57.875,76.027 45.397,63.548 45.397,45.639 " fill="#f4dcfe" data-fill-palette-color="accent"></polygon><polygon points="76.027,57.875 58.475,57.927 45.826,45.279 63.432,45.279 " fill="#f4dcfe" data-fill-palette-color="accent"></polygon><polygon points="76.027,32.125 63.432,44.721 45.707,44.721 58.355,32.073 " fill="#f4dcfe" data-fill-palette-color="accent"></polygon><polygon points="44.838,45.59 44.838,63.314 32.125,76.027 32.074,58.355 " fill="#f4dcfe" data-fill-palette-color="accent"></polygon><polygon points="57.928,31.712 45.397,44.243 45.397,26.452 57.875,13.974 " fill="#f4dcfe" data-fill-palette-color="accent"></polygon><polygon points="44.838,26.687 44.838,44.291 32.074,31.526 32.125,13.974 " fill="#f4dcfe" data-fill-palette-color="accent"></polygon><polygon points="44.479,44.721 26.569,44.721 13.974,32.125 31.832,32.073 " fill="#f4dcfe" data-fill-palette-color="accent"></polygon><polygon points="44.36,45.279 31.712,57.927 13.974,57.875 26.569,45.279 " fill="#f4dcfe" data-fill-palette-color="accent"></polygon><rect x="58.48" y="58.48" width="18.049" height="18.049" fill="#f4dcfe" data-fill-palette-color="accent"></rect><polygon points="76.527,13.474 76.527,31.516 58.914,31.516 58.912,31.518 58.484,31.516 58.484,13.474 " fill="#f4dcfe" data-fill-palette-color="accent"></polygon><polygon points="31.518,30.971 31.516,31.516 13.474,31.516 13.474,13.474 31.516,13.474 31.516,30.968 " fill="#f4dcfe" data-fill-palette-color="accent"></polygon><rect x="13.471" y="58.48" width="18.05" height="18.049" fill="#f4dcfe" data-fill-palette-color="accent"></rect><rect x="67.864" y="35.981" transform="matrix(0.7071 -0.7071 0.7071 0.7071 -9.3022 67.5465)" width="18.042" height="18.042" fill="#f4dcfe" data-fill-palette-color="accent"></rect><rect x="35.979" y="4.094" transform="matrix(0.7071 -0.7071 0.7071 0.7071 3.9068 35.6621)" width="18.042" height="18.042" fill="#f4dcfe" data-fill-palette-color="accent"></rect><rect x="4.095" y="35.98" transform="matrix(0.7071 -0.7071 0.7071 0.7071 -27.9787 22.4536)" width="18.041" height="18.041" fill="#f4dcfe" data-fill-palette-color="accent"></rect><rect x="35.98" y="67.865" transform="matrix(0.7071 -0.7071 0.7071 0.7071 -41.1877 54.3437)" width="18.04" height="18.041" fill="#f4dcfe" data-fill-palette-color="accent"></rect></svg></g></g></svg></g><defs></defs></svg><rect width="395.52" height="247.2" fill="none" stroke="none" visibility="hidden"></rect></g></svg></g></svg>